# xmcd
#
# Track frame offsets: 
#        150
#        17555
#        51296
#        69983
#        84145
#        86946
#        103767
#        124539
#        143692
#        147395
#        168430
#        189352
#        192868
#        218932
#        220851
#        244519
#        274274
#        278923
#        306696
#
# Disc length: 4235 seconds
#
# Revision: 0
# Processed by: cddbd v1.4PL0 Copyright (c) Steve Scherf et al.
# Submitted via: ExactAudioCopy v0.90b4
#
DISCID=1a108913
DTITLE=Van Morrison - Don't Look Back, disc 2
DYEAR=1974
DGENRE=Celtic
TTITLE0=Caledonia
TTITLE1=Caravan
TTITLE2=Gloria
TTITLE3=I Feel It Like That
TTITLE4=The First Trip interview
TTITLE5=Help Me
TTITLE6=Into The Mystic
TTITLE7=Kansas City
TTITLE8=A Different Trip interview
TTITLE9=Streets Of Arklov
TTITLE10=Try For Sleep
TTITLE11=The Road interviev
TTITLE12=I've Been Working
TTITLE13=Corner Boys interview
TTITLE14=Street Choir
TTITLE15=Take It Where You Find It
TTITLE16=Them interview
TTITLE17=Gloriza
TTITLE18=Rolling Hills
EXTD=
EXTT0=
EXTT1=
EXTT2=
EXTT3=
EXTT4=
EXTT5=
EXTT6=
EXTT7=
EXTT8=
EXTT9=
EXTT10=
EXTT11=
EXTT12=
EXTT13=
EXTT14=
EXTT15=
EXTT16=
EXTT17=
EXTT18=
PLAYORDER=
